<svg xmlns="http://www.w3.org/2000/svg" version="1.1" xmlns:xlink="http://www.w3.org/1999/xlink" xmlns:svgjs="http://svgjs.dev/svgjs" width="1440" height="600" preserveAspectRatio="none" viewBox="0 0 1440 600"><g mask="url(&quot;#SvgjsMask1109&quot;)" fill="none"><rect width="1440" height="600" x="0" y="0" fill="#0e2a47"></rect><path d="M0,420.545C101.259,434.458,209.188,514.388,297.432,462.814C384.972,411.651,379.416,282.856,403.93,184.469C424.264,102.86,442.741,21.268,428.083,-61.549C413.738,-142.6,373.634,-214.907,321.913,-278.939C268.754,-344.751,208.318,-409.197,127.382,-433.824C46.106,-458.554,-36.679,-418.226,-121.522,-413.865C-238.448,-407.854,-387.993,-491.111,-465.487,-403.347C-542.693,-315.909,-428.834,-178.727,-432.101,-62.127C-434.838,35.558,-519.783,130.041,-482.97,220.565C-446.135,311.144,-339.512,350.304,-249.168,387.712C-170.167,420.424,-84.71,408.906,0,420.545" fill="#0b2035"></path><path d="M1440 1074.539C1526.777 1060.284 1596.279 1005.572 1672.84 962.307 1754.6 916.1030000000001 1865.843 897.716 1904.417 812.092 1942.991 726.467 1885.286 630.46 1863.49 539.111 1843.78 456.506 1827.238 375.303 1782.914 302.863 1731.9850000000001 219.628 1674.537 138.863 1589.407 91.168 1491.342 36.226 1369.026-34.990999999999985 1268.055 14.408000000000015 1163.679 65.47299999999996 1190.0140000000001 229.84300000000002 1118.601 321.506 1053.075 405.613 919.377 421.78700000000003 875.106 518.78 827.075 624.011 819.705 756.299 873.373 858.77 926.549 960.302 1045.083 1007.048 1152.194 1047.835 1244.095 1082.8310000000001 1342.962 1090.48 1440 1074.539" fill="#123559"></path></g><defs><mask id="SvgjsMask1109"><rect width="1440" height="600" fill="#ffffff"></rect></mask></defs></svg>